<?xml version="1.0" encoding="UTF-8"?>
<svg id="Layer_1" xmlns="http://www.w3.org/2000/svg" version="1.1" viewBox="0 0 101 101">
  <!-- Generator: Adobe Illustrator 29.1.0, SVG Export Plug-In . SVG Version: 2.1.0 Build 142)  -->
  <defs>
    <style>
      .st0 {
        fill: #fff;
      }
    </style>
  </defs>
  <path class="st0" d="M69.9,45.4c-6.4,0-7.3,6.4-7.3,6.4h13.7s0-6.4-6.4-6.4Z"/>
  <path class="st0" d="M38.8,51.9h-12.1v11.2h10.8c.2,0,.5,0,.8,0,1.7,0,5-.5,5-5.4s-4.4-5.7-4.4-5.7Z"/>
  <path class="st0" d="M50.5.5C22.9.5.5,22.9.5,50.5s22.4,50,50,50,50-22.4,50-50S78.1.5,50.5.5ZM61,31.2h17.2v5.1h-17.2v-5.1ZM52.3,58.2c0,12.7-13.2,12.3-13.2,12.3h-21.7V28.8h21.7c6.6,0,11.8,3.6,11.8,11.1s-6.4,7.9-6.4,7.9c8.4,0,7.8,10.4,7.8,10.4ZM84.5,57.5h-21.6c0,7.7,7.3,7.3,7.3,7.3,6.9,0,6.7-4.5,6.7-4.5h7.3c0,11.9-14.3,11.1-14.3,11.1-17.1,0-16-15.9-16-15.9,0,0,0-16,16-16s14.5,18.1,14.5,18.1Z"/>
  <path class="st0" d="M41.8,40.5c0-4.3-3-4.3-3-4.3h-12.1v9.3h11.4c2,0,3.7-.6,3.7-5Z"/>
</svg>