<?xml version="1.0" encoding="UTF-8"?>
<svg xmlns="http://www.w3.org/2000/svg" version="1.1" viewBox="0 0 100 100">
  <defs>
    <style>
      .cls-1 {
        fill: none;
      }

      .cls-2 {
        fill: #fff;
      }

      .cls-3 {
        fill: #006191;
      }
    </style>
  </defs>
  <!-- Generator: Adobe Illustrator 28.7.3, SVG Export Plug-In . SVG Version: 1.2.0 Build 164)  -->
  <g>
    <g id="Layer_1">
      <rect class="cls-1" y="93" width="100" height="100"/>
      <path class="cls-2" d="M50,100c27.6,0,50-22.4,50-50S77.6,0,50,0,0,22.4,0,50s22.4,50,50,50Z"/>
      <path class="cls-3" d="M34.4,34.4h-12.5v43.8h12.5v-43.8Z"/>
      <path class="cls-3" d="M64.1,34.4c-8.7,0-10.2,3.2-10.9,6.2v-6.2h-12.5v43.8h12.5v-25c0-4.1,2.2-6.2,6.2-6.2s6.2,2.2,6.2,6.2v25h12.5v-21.9c0-12.5-1.6-21.9-14.1-21.9Z"/>
      <path class="cls-3" d="M28.1,31.2c3.5,0,6.2-2.8,6.2-6.2s-2.8-6.2-6.2-6.2-6.2,2.8-6.2,6.2,2.8,6.2,6.2,6.2Z"/>
    </g>
  </g>
</svg>