<svg width="150" height="97" viewBox="0 0 150 97" fill="none" xmlns="http://www.w3.org/2000/svg">
<g clip-path="url(#clip0_69_123)">
<rect width="150" height="97" rx="10" fill="#006191"/>
<g filter="url(#filter0_ddi_69_123)">
<path d="M40.9886 33.3548V30.6667H52.4133V33.3548H49.7251V45.1156C49.7251 46.4765 49.4087 47.6666 48.7759 48.6858C48.143 49.6995 47.2442 50.4779 46.0793 51.0212C44.9144 51.5644 43.5535 51.836 41.9966 51.836C41.3582 51.836 40.7254 51.7772 40.0981 51.6596C39.4709 51.542 38.8408 51.3404 38.208 51.0548C37.5808 50.7636 37.0263 50.4079 36.5447 49.9879C36.0687 49.5623 35.6822 49.019 35.3854 48.3582C35.0886 47.6918 34.9402 46.9469 34.9402 46.1237C34.9402 45.3788 35.2006 44.746 35.7214 44.2251C36.2479 43.6987 36.8835 43.4355 37.6284 43.4355C38.3732 43.4355 39.006 43.6987 39.5269 44.2251C40.0533 44.746 40.3165 45.3788 40.3165 46.1237C40.3165 46.6557 40.1737 47.1401 39.8881 47.5769C39.6081 48.0138 39.2357 48.3414 38.7708 48.5598C39.3421 48.9518 40.0813 49.1478 40.9886 49.1478C41.4198 49.1478 41.8314 49.0638 42.2235 48.8958C42.6211 48.7222 42.9795 48.473 43.2987 48.1482C43.6179 47.8234 43.8728 47.4005 44.0632 46.8797C44.2536 46.3533 44.3488 45.7652 44.3488 45.1156V33.3548H40.9886ZM81.1364 35.707C81.9205 35.707 82.6065 35.8134 83.1946 36.0262C83.7826 36.239 84.2642 36.533 84.6394 36.9083C85.0147 37.2779 85.3171 37.7511 85.5467 38.328C85.7819 38.8992 85.9443 39.5152 86.0339 40.1761C86.1291 40.8313 86.1767 41.5818 86.1767 42.4274V48.8118H87.8569V51.5H79.7923V48.8118H81.4724V42.0914C81.4724 41.2065 81.3912 40.5177 81.2288 40.0249C81.072 39.532 80.8424 39.1932 80.54 39.0084C80.2432 38.8236 79.8371 38.7312 79.3219 38.7312C78.8403 38.7312 78.3446 38.9412 77.835 39.3612C77.3254 39.7812 76.8437 40.3693 76.3901 41.1253C76.4181 41.5286 76.4321 41.9626 76.4321 42.4274V48.8118H78.1122V51.5H70.0477V48.8118H71.7278V42.0914C71.7278 41.2065 71.6466 40.5177 71.4842 40.0249C71.3274 39.532 71.0978 39.1932 70.7954 39.0084C70.4985 38.8236 70.0925 38.7312 69.5773 38.7312C69.1069 38.7312 68.6252 38.93 68.1324 39.3276C67.6396 39.7252 67.1719 40.2797 66.7295 40.9909L66.6875 48.8118H68.3676V51.5H60.3031V48.8118H61.9832V38.7312H60.3031V36.043H65.5198L66.6959 38.3196C66.9031 37.9443 67.1411 37.6083 67.4099 37.3115C67.6844 37.0091 68.0092 36.7347 68.3844 36.4882C68.7652 36.2362 69.2105 36.043 69.7201 35.9086C70.2297 35.7742 70.787 35.707 71.3918 35.707C72.0694 35.707 72.6743 35.7854 73.2063 35.9422C73.7383 36.0934 74.1892 36.3202 74.5588 36.6226C74.934 36.9195 75.2448 37.2751 75.4913 37.6895C75.7377 38.0983 75.9337 38.5744 76.0793 39.1176C76.2193 38.7536 76.3817 38.412 76.5665 38.0927C76.7569 37.7735 76.9978 37.4655 77.289 37.1687C77.5802 36.8663 77.9022 36.6114 78.255 36.4042C78.6135 36.1914 79.0391 36.0234 79.5319 35.9002C80.0248 35.7714 80.5596 35.707 81.1364 35.707ZM101.795 33.3548V30.6667H113.22V33.3548H110.532V45.1156C110.532 46.4765 110.215 47.6666 109.582 48.6858C108.949 49.6995 108.051 50.4779 106.886 51.0212C105.721 51.5644 104.36 51.836 102.803 51.836C102.165 51.836 101.532 51.7772 100.905 51.6596C100.277 51.542 99.6473 51.3404 99.0144 51.0548C98.3872 50.7636 97.8328 50.4079 97.3511 49.9879C96.8751 49.5623 96.4887 49.019 96.1919 48.3582C95.895 47.6918 95.7466 46.9469 95.7466 46.1237C95.7466 45.3788 96.0071 44.746 96.5279 44.2251C97.0543 43.6987 97.69 43.4355 98.4348 43.4355C99.1797 43.4355 99.8125 43.6987 100.333 44.2251C100.86 44.746 101.123 45.3788 101.123 46.1237C101.123 46.6557 100.98 47.1401 100.695 47.5769C100.415 48.0138 100.042 48.3414 99.5773 48.5598C100.149 48.9518 100.888 49.1478 101.795 49.1478C102.226 49.1478 102.638 49.0638 103.03 48.8958C103.428 48.7222 103.786 48.473 104.105 48.1482C104.424 47.8234 104.679 47.4005 104.87 46.8797C105.06 46.3533 105.155 45.7652 105.155 45.1156V33.3548H101.795ZM46.123 70.5H40.7466V69.1559H42.0907V61.4274H40.7466V60.0833H46.123C46.725 60.0833 47.2935 60.1505 47.8283 60.2849C48.3631 60.4166 48.8364 60.6014 49.248 60.8394C49.6624 61.0746 50.0334 61.3546 50.3611 61.6794C50.6915 62.0043 50.9631 62.3599 51.1759 62.7463C51.3915 63.1327 51.5553 63.5416 51.6673 63.9728C51.7793 64.4012 51.8353 64.8408 51.8353 65.2917C51.8353 65.7425 51.7793 66.1835 51.6673 66.6148C51.5553 67.0432 51.3915 67.4506 51.1759 67.837C50.9631 68.2235 50.6915 68.5791 50.3611 68.9039C50.0334 69.2287 49.6624 69.5101 49.248 69.7482C48.8364 69.9834 48.3631 70.1682 47.8283 70.3026C47.2935 70.4342 46.725 70.5 46.123 70.5ZM46.123 69.1559C46.5598 69.1559 46.9504 69.0593 47.2949 68.8661C47.6393 68.6701 47.9207 68.3985 48.1391 68.0512C48.3603 67.704 48.5269 67.298 48.6389 66.8332C48.7538 66.3655 48.8112 65.8517 48.8112 65.2917C48.8112 64.8436 48.7776 64.4264 48.7103 64.04C48.6431 63.6536 48.5381 63.2993 48.3953 62.9773C48.2525 62.6525 48.0761 62.3767 47.8661 62.1499C47.6589 61.9203 47.4069 61.7424 47.11 61.6164C46.8132 61.4904 46.4842 61.4274 46.123 61.4274H44.7789V69.1559H46.123ZM58.628 67.1398C58.6532 67.4646 58.7064 67.7544 58.7876 68.0092C58.8688 68.2641 58.9668 68.4727 59.0817 68.6351C59.1993 68.7975 59.3351 68.9319 59.4891 69.0383C59.6431 69.1419 59.8013 69.2161 59.9637 69.2609C60.1261 69.3029 60.2997 69.3239 60.4845 69.3239C61.0754 69.3239 61.536 69.2105 61.8664 68.9837C62.1997 68.7541 62.4657 68.4013 62.6645 67.9252L63.7818 68.3117C63.6809 68.5833 63.5521 68.8395 63.3953 69.0803C63.2413 69.3183 63.0551 69.5381 62.8367 69.7398C62.6183 69.9414 62.3747 70.115 62.1058 70.2606C61.8398 70.4034 61.5388 70.5154 61.2028 70.5966C60.8668 70.6778 60.5125 70.7184 60.1401 70.7184C59.5885 70.7184 59.0663 70.6218 58.5734 70.4286C58.0834 70.2354 57.6564 69.9666 57.2923 69.6221C56.9311 69.2749 56.6441 68.8479 56.4313 68.3411C56.2213 67.8342 56.1163 67.2826 56.1163 66.6862C56.1163 66.0897 56.2213 65.5353 56.4313 65.0228C56.6441 64.5104 56.9311 64.0792 57.2923 63.7292C57.6564 63.3763 58.0834 63.1005 58.5734 62.9017C59.0663 62.7029 59.5885 62.6035 60.1401 62.6035C60.6918 62.6035 61.2126 62.7029 61.7026 62.9017C62.1955 63.1005 62.6225 63.3763 62.9837 63.7292C63.3477 64.0792 63.6347 64.5104 63.8448 65.0228C64.0576 65.5353 64.164 66.0897 64.164 66.6862L64.059 67.1398H58.628ZM58.6574 65.7957H61.6228C61.55 65.1517 61.389 64.6826 61.1398 64.3886C60.8906 64.0946 60.5601 63.9476 60.1485 63.9476C59.9441 63.9476 59.7607 63.9812 59.5983 64.0484C59.4359 64.1128 59.2903 64.2178 59.1615 64.3634C59.0327 64.5062 58.9248 64.698 58.838 64.9388C58.754 65.1769 58.6938 65.4625 58.6574 65.7957ZM70.7466 69.1601C70.9063 69.2693 71.1471 69.3239 71.4691 69.3239C71.7575 69.3239 71.9913 69.3071 72.1705 69.2735C72.3525 69.2399 72.4898 69.1853 72.5822 69.1097C72.6746 69.0313 72.7362 68.9459 72.767 68.8535C72.7978 68.7583 72.8132 68.6351 72.8132 68.4839C72.8132 68.3047 72.7656 68.1506 72.6704 68.0218C72.5752 67.893 72.4463 67.7894 72.2839 67.711C72.1215 67.6326 71.9353 67.564 71.7253 67.5052C71.5153 67.4436 71.2941 67.3862 71.0617 67.333C70.8292 67.277 70.5968 67.2168 70.3644 67.1524C70.132 67.0852 69.9108 66.9984 69.7008 66.892C69.4908 66.7828 69.3045 66.6554 69.1421 66.5097C68.9797 66.3613 68.8509 66.1695 68.7557 65.9343C68.6605 65.6991 68.6129 65.4289 68.6129 65.1237C68.6129 64.8436 68.6465 64.5888 68.7137 64.3592C68.7809 64.1296 68.8705 63.935 68.9825 63.7754C69.0945 63.613 69.2359 63.4715 69.4068 63.3511C69.5776 63.2307 69.7554 63.1341 69.9402 63.0613C70.1278 62.9885 70.3378 62.9297 70.5702 62.8849C70.8054 62.8401 71.0323 62.8107 71.2507 62.7967C71.4691 62.7799 71.7071 62.7715 71.9647 62.7715C72.5248 62.7715 73.0134 62.8429 73.4306 62.9857C73.8506 63.1285 74.1811 63.3203 74.4219 63.5612C74.5507 63.6704 74.6501 63.8034 74.7201 63.9602C74.7929 64.1142 74.8293 64.278 74.8293 64.4516C74.8293 64.7764 74.7145 65.0537 74.4849 65.2833C74.2553 65.5129 73.978 65.6277 73.6532 65.6277C73.3284 65.6277 73.0512 65.5129 72.8216 65.2833C72.592 65.0537 72.4772 64.7764 72.4772 64.4516C72.4772 64.334 72.494 64.2206 72.5276 64.1114C72.3679 64.0022 72.1271 63.9476 71.8051 63.9476C71.4103 63.9476 71.1149 63.9952 70.9189 64.0904C70.7256 64.1856 70.629 64.362 70.629 64.6196C70.629 64.782 70.6696 64.9262 70.7508 65.0523C70.832 65.1755 70.9427 65.2777 71.0827 65.3589C71.2227 65.4373 71.3851 65.5129 71.5699 65.5857C71.7575 65.6557 71.9563 65.7159 72.1663 65.7663C72.3763 65.8139 72.592 65.8727 72.8132 65.9427C73.0344 66.0127 73.25 66.0841 73.46 66.1569C73.67 66.2297 73.8674 66.3263 74.0523 66.4467C74.2399 66.5643 74.4037 66.6974 74.5437 66.8458C74.6837 66.9942 74.7943 67.1804 74.8755 67.4044C74.9567 67.6256 74.9973 67.8734 74.9973 68.1478C74.9973 68.5399 74.9315 68.8857 74.7999 69.1853C74.6711 69.4821 74.4975 69.723 74.2791 69.9078C74.0635 70.0926 73.7946 70.2438 73.4726 70.3614C73.1506 70.4762 72.816 70.556 72.4688 70.6008C72.1215 70.6456 71.7351 70.668 71.3095 70.668C70.4498 70.668 69.7568 70.5042 69.2303 70.1766C68.7067 69.849 68.4449 69.3967 68.4449 68.8199C68.4449 68.4951 68.5597 68.2179 68.7893 67.9882C69.0189 67.7586 69.2961 67.6438 69.621 67.6438C69.9458 67.6438 70.223 67.7586 70.4526 67.9882C70.6822 68.2179 70.797 68.4951 70.797 68.8199C70.797 68.9375 70.7802 69.0509 70.7466 69.1601ZM80.3409 61.8768C80.0805 61.6136 79.9503 61.2958 79.9503 60.9234C79.9503 60.551 80.0805 60.2345 80.3409 59.9741C80.6041 59.7109 80.9219 59.5793 81.2944 59.5793C81.6668 59.5793 81.9832 59.7109 82.2436 59.9741C82.5068 60.2345 82.6384 60.551 82.6384 60.9234C82.6384 61.2958 82.5068 61.6136 82.2436 61.8768C81.9832 62.1373 81.6668 62.2675 81.2944 62.2675C80.9219 62.2675 80.6041 62.1373 80.3409 61.8768ZM79.2782 62.7715H82.4704V69.1559H83.3105V70.5H79.2782V69.1559H80.1183V64.1156H79.2782V62.7715ZM92.6317 61.2594C92.6317 60.887 92.7619 60.5706 93.0223 60.3101C93.2856 60.0469 93.6034 59.9153 93.9758 59.9153C94.1158 59.9153 94.253 59.9363 94.3874 59.9783C94.561 60.0315 94.7123 60.1015 94.8411 60.1883C94.9727 60.2751 95.0791 60.3704 95.1603 60.474C95.2415 60.5776 95.3073 60.698 95.3577 60.8352C95.4081 60.9696 95.4417 61.1054 95.4585 61.2426C95.4781 61.377 95.4879 61.5268 95.4879 61.692C95.4879 61.8628 95.4543 62.0421 95.3871 62.2297C95.3199 62.4173 95.2303 62.5951 95.1183 62.7631C95.0091 62.9283 94.8887 63.0837 94.7571 63.2293C94.6283 63.3721 94.4952 63.4982 94.358 63.6074C94.7753 64.019 94.9839 64.5244 94.9839 65.1237C94.9839 65.5717 94.8859 65.9707 94.6899 66.3207C94.4966 66.668 94.2292 66.9494 93.8876 67.165C93.546 67.3778 93.1554 67.5388 92.7157 67.648C92.2789 67.7572 91.8029 67.8118 91.2876 67.8118C90.862 67.8118 90.4546 67.7642 90.0654 67.669C89.8105 67.7082 89.6145 67.7768 89.4773 67.8748C89.3401 67.9728 89.2715 68.0638 89.2715 68.1478C89.2715 68.2319 89.3065 68.3089 89.3765 68.3789C89.4465 68.4489 89.5235 68.4839 89.6075 68.4839H91.9597C93.1442 68.4839 93.9996 68.6533 94.526 68.9921C95.0553 69.3309 95.3199 69.8896 95.3199 70.668C95.3199 71.0432 95.2737 71.3835 95.1813 71.6887C95.0889 71.9967 94.9629 72.2585 94.8033 72.4741C94.6465 72.6925 94.4518 72.8844 94.2194 73.0496C93.987 73.2176 93.7434 73.352 93.4886 73.4528C93.2338 73.5536 92.9495 73.6348 92.6359 73.6964C92.3223 73.758 92.0185 73.8 91.7245 73.8224C91.4304 73.8476 91.1168 73.8602 90.7836 73.8602C90.2516 73.8602 89.7699 73.8014 89.3387 73.6838C88.9103 73.569 88.5575 73.4108 88.2802 73.2092C88.0058 73.0076 87.7944 72.7751 87.646 72.5119C87.4976 72.2515 87.4234 71.9729 87.4234 71.6761C87.4234 71.0684 87.772 70.5938 88.4693 70.2522C88.1976 70.115 87.9834 69.9274 87.8266 69.6893C87.6698 69.4485 87.5914 69.1587 87.5914 68.8199C87.5914 68.4419 87.7006 68.0988 87.919 67.7908C88.1374 67.4828 88.4315 67.2588 88.8011 67.1188C88.4735 66.8864 88.2172 66.6036 88.0324 66.2703C87.8504 65.9371 87.7594 65.5549 87.7594 65.1237C87.7594 64.7652 87.8224 64.4432 87.9484 64.1576C88.0772 63.872 88.2494 63.6354 88.4651 63.4477C88.6835 63.2573 88.9439 63.1005 89.2463 62.9773C89.5515 62.8513 89.8721 62.7617 90.2082 62.7085C90.5442 62.6553 90.904 62.6287 91.2876 62.6287C92.1725 62.6287 92.9271 62.7743 93.5516 63.0655C93.6944 62.9003 93.805 62.7449 93.8834 62.5993C93.5334 62.5769 93.2366 62.4369 92.9929 62.1793C92.7521 61.9217 92.6317 61.615 92.6317 61.2594ZM91.3716 63.9476C90.9768 63.9476 90.6674 64.061 90.4434 64.2878C90.2222 64.5146 90.1116 64.8422 90.1116 65.2707C90.1116 65.7019 90.2236 66.0379 90.4476 66.2787C90.6716 66.5167 90.9796 66.6358 91.3716 66.6358C91.7609 66.6358 92.0675 66.5153 92.2915 66.2745C92.5183 66.0309 92.6317 65.6963 92.6317 65.2707C92.6317 64.8478 92.5197 64.5216 92.2957 64.292C92.0717 64.0624 91.7637 63.9476 91.3716 63.9476ZM90.0906 70.5C89.7685 70.7296 89.6075 71.0096 89.6075 71.3401C89.6075 71.6733 89.7111 71.8959 89.9183 72.0079C90.1256 72.1227 90.526 72.1801 91.1196 72.1801C92.4637 72.1801 93.1358 71.8441 93.1358 71.172C93.1358 71.004 93.0658 70.85 92.9257 70.71C92.7857 70.57 92.6317 70.5 92.4637 70.5H90.0906ZM105.061 62.6035C105.453 62.6035 105.796 62.6567 106.09 62.7631C106.384 62.8695 106.625 63.0165 106.813 63.2041C107 63.3889 107.151 63.6256 107.266 63.914C107.384 64.1996 107.465 64.5076 107.51 64.838C107.558 65.1657 107.581 65.5409 107.581 65.9637V69.1559H108.421V70.5H104.389V69.1559H105.229V65.7957C105.229 65.3533 105.189 65.0088 105.107 64.7624C105.029 64.516 104.914 64.3466 104.763 64.2542C104.615 64.1618 104.412 64.1156 104.154 64.1156C103.919 64.1156 103.678 64.215 103.431 64.4138C103.185 64.6126 102.951 64.8898 102.73 65.2455L102.709 69.1559H103.549V70.5H99.5168V69.1559H100.357V64.1156H99.5168V62.7715H102.125L102.713 63.9098C102.817 63.7222 102.936 63.5542 103.07 63.4057C103.207 63.2545 103.37 63.1173 103.557 62.9941C103.748 62.8681 103.97 62.7715 104.225 62.7043C104.48 62.6371 104.759 62.6035 105.061 62.6035Z" fill="#F8F8F8"/>
</g>
<g filter="url(#filter1_d_69_123)">
<path d="M27.3001 96.6134C27.3001 107.896 19.1691 102.762 6.87093 117.043C-5.42728 131.323 -10.2314 110.481 -10.2314 99.198C-10.2314 87.9153 0.165038 82.2703 11.4477 82.2703C22.7304 82.2703 27.3001 85.3307 27.3001 96.6134Z" fill="#F8F8F8"/>
</g>
<g filter="url(#filter2_d_69_123)">
<path d="M153.385 5.37297C145.723 5.16341 155.756 15.0471 141.711 17.0468C127.665 19.0464 148.234 5.37297 131.938 6.84987C115.642 8.32677 137.349 -4.3924 144.326 -2.8231C151.303 -1.2538 161.046 5.58253 153.385 5.37297Z" fill="#F8F8F8"/>
</g>
<g filter="url(#filter3_d_69_123)">
<path d="M41.1939 17.0536C48.2715 8.98867 28.6524 10.9566 39.06 -5.96059C49.4676 -22.8778 45.8 11.5061 58.7833 -7.36771C71.7666 -26.2415 66.0535 8.51471 58.1233 14.6265C50.193 20.7383 34.1163 25.1186 41.1939 17.0536Z" fill="#F8F8F8"/>
</g>
<g filter="url(#filter4_d_69_123)">
<path d="M137.74 77.1166C129.483 78.5519 117.911 68.0603 120.19 64.7638C122.468 61.4672 122.816 51.412 131.074 49.9767C139.332 48.5413 139.34 61.7153 146.221 63.6898C153.102 65.6643 145.998 75.6812 137.74 77.1166Z" fill="#F8F8F8"/>
</g>
<g filter="url(#filter5_d_69_123)">
<path d="M-3.70223 36.9395C-1.96592 30.7304 14.8655 25.9493 16.4005 28.6225C17.9355 31.2957 24.8024 34.8656 23.0661 41.0746C21.3298 47.2837 12.179 42.9295 8.53065 47.0539C4.88225 51.1784 -5.43854 43.1485 -3.70223 36.9395Z" fill="#F8F8F8"/>
</g>
<g filter="url(#filter6_d_69_123)">
<path d="M27.296 62.5785C27.5502 65.1937 17.1093 68.0439 15.6222 74.2523C14.135 80.4607 -2.54881 65.5323 5.84937 64.0554C14.2476 62.5785 11.7902 54.3824 18.2375 54.3824C24.6847 54.3824 27.0417 59.9633 27.296 62.5785Z" fill="#5C0C0C"/>
</g>
<g filter="url(#filter7_d_69_123)">
<path d="M65.9526 100.718C56.5435 89.4093 52.5416 95.0338 45.272 98.4771C38.0024 101.92 41.3062 76.0193 47.5641 80.8293C53.822 85.6392 57.3793 86.2433 66.8446 85.3515C76.31 84.4596 75.3617 112.026 65.9526 100.718Z" fill="#5C0C0C"/>
</g>
<g filter="url(#filter8_d_69_123)">
<path d="M156.186 30.5434C156.186 38.0866 144.101 39.6881 142.527 44.2017C140.954 48.7153 129.599 36.5158 131.093 32.2713C132.588 28.0269 136.85 15.2158 145.587 20.954C154.325 26.6921 156.186 23.0001 156.186 30.5434Z" fill="#5C0C0C"/>
</g>
<g filter="url(#filter9_d_69_123)">
<path d="M96.5458 21.681C91.0469 17.9549 85.1274 15.5656 81.0607 15.9568C76.994 16.348 82.4085 3.17236 86.238 2.81602C90.0675 2.45968 96.7108 -2.00375 100.204 10.0256C103.698 22.0549 102.045 25.4071 96.5458 21.681Z" fill="#5C0C0C"/>
</g>
<g filter="url(#filter10_d_69_123)">
<path d="M17.978 4.92504C9.45235 10.0813 2.48443 16.6491 0.467264 22.4357C-1.5499 28.2224 -16.1079 12.582 -14.1919 7.14039C-12.276 1.69879 -14.1919 -10.1526 4.39024 -7.36905C22.9724 -4.58554 26.5036 -0.231246 17.978 4.92504Z" fill="#5C0C0C"/>
</g>
<g filter="url(#filter11_d_69_123)">
<path d="M169.035 90.2934C169.441 94.4777 152.736 99.0381 150.357 108.971C147.977 118.905 121.283 95.0195 134.72 92.6564C148.157 90.2934 144.225 77.1797 154.541 77.1797C164.857 77.1797 168.628 86.1091 169.035 90.2934Z" fill="#5C0C0C"/>
</g>
<g filter="url(#filter12_d_69_123)">
<path d="M121.107 98.4704C121.107 109.753 112.976 104.619 100.678 118.9C88.3794 133.18 83.5752 112.338 83.5752 101.055C83.5752 89.7723 93.9717 84.1273 105.254 84.1273C116.537 84.1273 121.107 87.1877 121.107 98.4704Z" fill="#F8F8F8"/>
</g>
</g>
<defs>
<filter id="filter0_ddi_69_123" x="30.9404" y="30.6666" width="86.2793" height="51.1936" filterUnits="userSpaceOnUse" color-interpolation-filters="sRGB">
<feFlood flood-opacity="0" result="BackgroundImageFix"/>
<feColorMatrix in="SourceAlpha" type="matrix" values="0 0 0 0 0 0 0 0 0 0 0 0 0 0 0 0 0 0 127 0" result="hardAlpha"/>
<feOffset dx="0.537634" dy="1.34409"/>
<feGaussianBlur stdDeviation="0.537634"/>
<feComposite in2="hardAlpha" operator="out"/>
<feColorMatrix type="matrix" values="0 0 0 0 0 0 0 0 0 0.379503 0 0 0 0 0.569255 0 0 0 1 0"/>
<feBlend mode="normal" in2="BackgroundImageFix" result="effect1_dropShadow_69_123"/>
<feColorMatrix in="SourceAlpha" type="matrix" values="0 0 0 0 0 0 0 0 0 0 0 0 0 0 0 0 0 0 127 0" result="hardAlpha"/>
<feOffset dy="4"/>
<feGaussianBlur stdDeviation="2"/>
<feComposite in2="hardAlpha" operator="out"/>
<feColorMatrix type="matrix" values="0 0 0 0 0 0 0 0 0 0 0 0 0 0 0 0 0 0 0.25 0"/>
<feBlend mode="normal" in2="effect1_dropShadow_69_123" result="effect2_dropShadow_69_123"/>
<feBlend mode="normal" in="SourceGraphic" in2="effect2_dropShadow_69_123" result="shape"/>
<feColorMatrix in="SourceAlpha" type="matrix" values="0 0 0 0 0 0 0 0 0 0 0 0 0 0 0 0 0 0 127 0" result="hardAlpha"/>
<feOffset dy="4"/>
<feGaussianBlur stdDeviation="2"/>
<feComposite in2="hardAlpha" operator="arithmetic" k2="-1" k3="1"/>
<feColorMatrix type="matrix" values="0 0 0 0 0 0 0 0 0 0 0 0 0 0 0 0 0 0 0.25 0"/>
<feBlend mode="normal" in2="shape" result="effect3_innerShadow_69_123"/>
</filter>
<filter id="filter1_d_69_123" x="-11.3067" y="82.2703" width="39.6818" height="41.7533" filterUnits="userSpaceOnUse" color-interpolation-filters="sRGB">
<feFlood flood-opacity="0" result="BackgroundImageFix"/>
<feColorMatrix in="SourceAlpha" type="matrix" values="0 0 0 0 0 0 0 0 0 0 0 0 0 0 0 0 0 0 127 0" result="hardAlpha"/>
<feOffset dy="1.07527"/>
<feGaussianBlur stdDeviation="0.537634"/>
<feComposite in2="hardAlpha" operator="out"/>
<feColorMatrix type="matrix" values="0 0 0 0 0 0 0 0 0 0 0 0 0 0 0 0 0 0 0.25 0"/>
<feBlend mode="normal" in2="BackgroundImageFix" result="effect1_dropShadow_69_123"/>
<feBlend mode="normal" in="SourceGraphic" in2="effect1_dropShadow_69_123" result="shape"/>
</filter>
<filter id="filter2_d_69_123" x="124.932" y="-2.95752" width="32.3292" height="22.355" filterUnits="userSpaceOnUse" color-interpolation-filters="sRGB">
<feFlood flood-opacity="0" result="BackgroundImageFix"/>
<feColorMatrix in="SourceAlpha" type="matrix" values="0 0 0 0 0 0 0 0 0 0 0 0 0 0 0 0 0 0 127 0" result="hardAlpha"/>
<feOffset dy="1.07527"/>
<feGaussianBlur stdDeviation="0.537634"/>
<feComposite in2="hardAlpha" operator="out"/>
<feColorMatrix type="matrix" values="0 0 0 0 0 0 0 0 0 0 0 0 0 0 0 0 0 0 0.25 0"/>
<feBlend mode="normal" in2="BackgroundImageFix" result="effect1_dropShadow_69_123"/>
<feBlend mode="normal" in="SourceGraphic" in2="effect1_dropShadow_69_123" result="shape"/>
</filter>
<filter id="filter3_d_69_123" x="34.4409" y="-12.9249" width="33.5361" height="37.3821" filterUnits="userSpaceOnUse" color-interpolation-filters="sRGB">
<feFlood flood-opacity="0" result="BackgroundImageFix"/>
<feColorMatrix in="SourceAlpha" type="matrix" values="0 0 0 0 0 0 0 0 0 0 0 0 0 0 0 0 0 0 127 0" result="hardAlpha"/>
<feOffset dy="1.50538"/>
<feGaussianBlur stdDeviation="0.752688"/>
<feComposite in2="hardAlpha" operator="out"/>
<feColorMatrix type="matrix" values="0 0 0 0 0 0 0 0 0 0 0 0 0 0 0 0 0 0 0.25 0"/>
<feBlend mode="normal" in2="BackgroundImageFix" result="effect1_dropShadow_69_123"/>
<feBlend mode="normal" in="SourceGraphic" in2="effect1_dropShadow_69_123" result="shape"/>
</filter>
<filter id="filter4_d_69_123" x="118.501" y="49.8677" width="31.8904" height="30.1786" filterUnits="userSpaceOnUse" color-interpolation-filters="sRGB">
<feFlood flood-opacity="0" result="BackgroundImageFix"/>
<feColorMatrix in="SourceAlpha" type="matrix" values="0 0 0 0 0 0 0 0 0 0 0 0 0 0 0 0 0 0 127 0" result="hardAlpha"/>
<feOffset dy="1.39785"/>
<feGaussianBlur stdDeviation="0.698925"/>
<feComposite in2="hardAlpha" operator="out"/>
<feColorMatrix type="matrix" values="0 0 0 0 0 0 0 0 0 0 0 0 0 0 0 0 0 0 0.25 0"/>
<feBlend mode="normal" in2="BackgroundImageFix" result="effect1_dropShadow_69_123"/>
<feBlend mode="normal" in="SourceGraphic" in2="effect1_dropShadow_69_123" result="shape"/>
</filter>
<filter id="filter5_d_69_123" x="-4.97273" y="27.8644" width="29.3937" height="22.4706" filterUnits="userSpaceOnUse" color-interpolation-filters="sRGB">
<feFlood flood-opacity="0" result="BackgroundImageFix"/>
<feColorMatrix in="SourceAlpha" type="matrix" values="0 0 0 0 0 0 0 0 0 0 0 0 0 0 0 0 0 0 127 0" result="hardAlpha"/>
<feOffset dy="1.07527"/>
<feGaussianBlur stdDeviation="0.537634"/>
<feComposite in2="hardAlpha" operator="out"/>
<feColorMatrix type="matrix" values="0 0 0 0 0 0 0 0 0 0 0 0 0 0 0 0 0 0 0.25 0"/>
<feBlend mode="normal" in2="BackgroundImageFix" result="effect1_dropShadow_69_123"/>
<feBlend mode="normal" in="SourceGraphic" in2="effect1_dropShadow_69_123" result="shape"/>
</filter>
<filter id="filter6_d_69_123" x="2.42278" y="54.3824" width="25.9533" height="23.5241" filterUnits="userSpaceOnUse" color-interpolation-filters="sRGB">
<feFlood flood-opacity="0" result="BackgroundImageFix"/>
<feColorMatrix in="SourceAlpha" type="matrix" values="0 0 0 0 0 0 0 0 0 0 0 0 0 0 0 0 0 0 127 0" result="hardAlpha"/>
<feOffset dy="1.07527"/>
<feGaussianBlur stdDeviation="0.537634"/>
<feComposite in2="hardAlpha" operator="out"/>
<feColorMatrix type="matrix" values="0 0 0 0 0 0 0 0 0 0 0 0 0 0 0 0 0 0 0.25 0"/>
<feBlend mode="normal" in2="BackgroundImageFix" result="effect1_dropShadow_69_123"/>
<feBlend mode="normal" in="SourceGraphic" in2="effect1_dropShadow_69_123" result="shape"/>
</filter>
<filter id="filter7_d_69_123" x="40.0605" y="80.2314" width="34.508" height="25.3646" filterUnits="userSpaceOnUse" color-interpolation-filters="sRGB">
<feFlood flood-opacity="0" result="BackgroundImageFix"/>
<feColorMatrix in="SourceAlpha" type="matrix" values="0 0 0 0 0 0 0 0 0 0 0 0 0 0 0 0 0 0 127 0" result="hardAlpha"/>
<feOffset dy="1.07527"/>
<feGaussianBlur stdDeviation="0.537634"/>
<feComposite in2="hardAlpha" operator="out"/>
<feColorMatrix type="matrix" values="0 0 0 0 0 0 0 0 0 0 0 0 0 0 0 0 0 0 0.25 0"/>
<feBlend mode="normal" in2="BackgroundImageFix" result="effect1_dropShadow_69_123"/>
<feBlend mode="normal" in="SourceGraphic" in2="effect1_dropShadow_69_123" result="shape"/>
</filter>
<filter id="filter8_d_69_123" x="129.7" y="19.5" width="27.7437" height="28.2042" filterUnits="userSpaceOnUse" color-interpolation-filters="sRGB">
<feFlood flood-opacity="0" result="BackgroundImageFix"/>
<feColorMatrix in="SourceAlpha" type="matrix" values="0 0 0 0 0 0 0 0 0 0 0 0 0 0 0 0 0 0 127 0" result="hardAlpha"/>
<feOffset dy="1.25806"/>
<feGaussianBlur stdDeviation="0.629032"/>
<feComposite in2="hardAlpha" operator="out"/>
<feColorMatrix type="matrix" values="0 0 0 0 0 0 0 0 0 0 0 0 0 0 0 0 0 0 0.25 0"/>
<feBlend mode="normal" in2="BackgroundImageFix" result="effect1_dropShadow_69_123"/>
<feBlend mode="normal" in="SourceGraphic" in2="effect1_dropShadow_69_123" result="shape"/>
</filter>
<filter id="filter9_d_69_123" x="78.54" y="1.71497" width="24.5724" height="23.5597" filterUnits="userSpaceOnUse" color-interpolation-filters="sRGB">
<feFlood flood-opacity="0" result="BackgroundImageFix"/>
<feColorMatrix in="SourceAlpha" type="matrix" values="0 0 0 0 0 0 0 0 0 0 0 0 0 0 0 0 0 0 127 0" result="hardAlpha"/>
<feOffset dy="1.07527"/>
<feGaussianBlur stdDeviation="0.537634"/>
<feComposite in2="hardAlpha" operator="out"/>
<feColorMatrix type="matrix" values="0 0 0 0 0 0 0 0 0 0 0 0 0 0 0 0 0 0 0.25 0"/>
<feBlend mode="normal" in2="BackgroundImageFix" result="effect1_dropShadow_69_123"/>
<feBlend mode="normal" in="SourceGraphic" in2="effect1_dropShadow_69_123" result="shape"/>
</filter>
<filter id="filter10_d_69_123" x="-15.4405" y="-7.78638" width="38.8908" height="33.6374" filterUnits="userSpaceOnUse" color-interpolation-filters="sRGB">
<feFlood flood-opacity="0" result="BackgroundImageFix"/>
<feColorMatrix in="SourceAlpha" type="matrix" values="0 0 0 0 0 0 0 0 0 0 0 0 0 0 0 0 0 0 127 0" result="hardAlpha"/>
<feOffset dy="1.07527"/>
<feGaussianBlur stdDeviation="0.537634"/>
<feComposite in2="hardAlpha" operator="out"/>
<feColorMatrix type="matrix" values="0 0 0 0 0 0 0 0 0 0 0 0 0 0 0 0 0 0 0.25 0"/>
<feBlend mode="normal" in2="BackgroundImageFix" result="effect1_dropShadow_69_123"/>
<feBlend mode="normal" in="SourceGraphic" in2="effect1_dropShadow_69_123" result="shape"/>
</filter>
<filter id="filter11_d_69_123" x="129.238" y="77.1797" width="41.5248" height="37.6385" filterUnits="userSpaceOnUse" color-interpolation-filters="sRGB">
<feFlood flood-opacity="0" result="BackgroundImageFix"/>
<feColorMatrix in="SourceAlpha" type="matrix" values="0 0 0 0 0 0 0 0 0 0 0 0 0 0 0 0 0 0 127 0" result="hardAlpha"/>
<feOffset dy="1.72043"/>
<feGaussianBlur stdDeviation="0.860215"/>
<feComposite in2="hardAlpha" operator="out"/>
<feColorMatrix type="matrix" values="0 0 0 0 0 0 0 0 0 0 0 0 0 0 0 0 0 0 0.25 0"/>
<feBlend mode="normal" in2="BackgroundImageFix" result="effect1_dropShadow_69_123"/>
<feBlend mode="normal" in="SourceGraphic" in2="effect1_dropShadow_69_123" result="shape"/>
</filter>
<filter id="filter12_d_69_123" x="82.4999" y="84.1273" width="39.6818" height="41.7533" filterUnits="userSpaceOnUse" color-interpolation-filters="sRGB">
<feFlood flood-opacity="0" result="BackgroundImageFix"/>
<feColorMatrix in="SourceAlpha" type="matrix" values="0 0 0 0 0 0 0 0 0 0 0 0 0 0 0 0 0 0 127 0" result="hardAlpha"/>
<feOffset dy="1.07527"/>
<feGaussianBlur stdDeviation="0.537634"/>
<feComposite in2="hardAlpha" operator="out"/>
<feColorMatrix type="matrix" values="0 0 0 0 0 0 0 0 0 0 0 0 0 0 0 0 0 0 0.25 0"/>
<feBlend mode="normal" in2="BackgroundImageFix" result="effect1_dropShadow_69_123"/>
<feBlend mode="normal" in="SourceGraphic" in2="effect1_dropShadow_69_123" result="shape"/>
</filter>
<clipPath id="clip0_69_123">
<rect width="150" height="97" rx="10" fill="white"/>
</clipPath>
</defs>
</svg>
