<svg width="44" height="27" viewBox="0 0 44 27" fill="none" xmlns="http://www.w3.org/2000/svg">
<path d="M11.4387 8.8096C10.8227 8.8096 10.2627 8.7056 9.7587 8.4976C9.2627 8.2816 8.8507 7.9736 8.5227 7.5736L9.8187 6.0376C10.0427 6.3256 10.2747 6.5456 10.5147 6.6976C10.7547 6.8416 11.0067 6.9136 11.2707 6.9136C11.9747 6.9136 12.3267 6.5056 12.3267 5.6896V2.0776H9.4227V0.241601H14.6787V5.5456C14.6787 6.6416 14.4027 7.4616 13.8507 8.0056C13.2987 8.5416 12.4947 8.8096 11.4387 8.8096ZM24.6464 2.0296C25.1504 2.0296 25.5984 2.1336 25.9904 2.3416C26.3904 2.5416 26.7024 2.8536 26.9264 3.2776C27.1584 3.7016 27.2744 4.2496 27.2744 4.9216V8.6416H24.9944V5.2936C24.9944 4.8296 24.9064 4.4936 24.7304 4.2856C24.5544 4.0696 24.3144 3.9616 24.0104 3.9616C23.7944 3.9616 23.5984 4.0136 23.4224 4.1176C23.2464 4.2216 23.1104 4.3816 23.0144 4.5976C22.9184 4.8056 22.8704 5.0776 22.8704 5.4136V8.6416H20.5904V5.2936C20.5904 4.8296 20.5024 4.4936 20.3264 4.2856C20.1584 4.0696 19.9184 3.9616 19.6064 3.9616C19.3824 3.9616 19.1824 4.0136 19.0064 4.1176C18.8384 4.2216 18.7024 4.3816 18.5984 4.5976C18.5024 4.8056 18.4544 5.0776 18.4544 5.4136V8.6416H16.1744V2.1376H18.3464V3.9496L17.9144 3.4336C18.1544 2.9696 18.4824 2.6216 18.8984 2.3896C19.3144 2.1496 19.7784 2.0296 20.2904 2.0296C20.8744 2.0296 21.3864 2.1816 21.8264 2.4856C22.2744 2.7816 22.5744 3.2456 22.7264 3.8776L21.9824 3.7216C22.2144 3.1936 22.5624 2.7816 23.0264 2.4856C23.4984 2.1816 24.0384 2.0296 24.6464 2.0296ZM30.6574 8.8096C30.0414 8.8096 29.4814 8.7056 28.9774 8.4976C28.4814 8.2816 28.0694 7.9736 27.7414 7.5736L29.0374 6.0376C29.2614 6.3256 29.4934 6.5456 29.7334 6.6976C29.9734 6.8416 30.2254 6.9136 30.4894 6.9136C31.1934 6.9136 31.5454 6.5056 31.5454 5.6896V2.0776H28.6414V0.241601H33.8974V5.5456C33.8974 6.6416 33.6214 7.4616 33.0694 8.0056C32.5174 8.5416 31.7134 8.8096 30.6574 8.8096ZM0.174961 23.6416V15.2416H4.14696C5.07496 15.2416 5.89096 15.4136 6.59496 15.7576C7.29896 16.1016 7.84696 16.5856 8.23896 17.2096C8.63896 17.8336 8.83896 18.5776 8.83896 19.4416C8.83896 20.2976 8.63896 21.0416 8.23896 21.6736C7.84696 22.2976 7.29896 22.7816 6.59496 23.1256C5.89096 23.4696 5.07496 23.6416 4.14696 23.6416H0.174961ZM2.55096 21.7456H4.05096C4.53096 21.7456 4.94696 21.6576 5.29896 21.4816C5.65896 21.2976 5.93896 21.0336 6.13896 20.6896C6.33896 20.3376 6.43896 19.9216 6.43896 19.4416C6.43896 18.9536 6.33896 18.5376 6.13896 18.1936C5.93896 17.8496 5.65896 17.5896 5.29896 17.4136C4.94696 17.2296 4.53096 17.1376 4.05096 17.1376H2.55096V21.7456ZM13.389 23.7496C12.621 23.7496 11.949 23.6056 11.373 23.3176C10.805 23.0216 10.361 22.6216 10.041 22.1176C9.72902 21.6056 9.57302 21.0256 9.57302 20.3776C9.57302 19.7296 9.72502 19.1536 10.029 18.6496C10.341 18.1376 10.769 17.7416 11.313 17.4616C11.857 17.1736 12.469 17.0296 13.149 17.0296C13.789 17.0296 14.373 17.1616 14.901 17.4256C15.429 17.6816 15.849 18.0616 16.161 18.5656C16.473 19.0696 16.629 19.6816 16.629 20.4016C16.629 20.4816 16.625 20.5736 16.617 20.6776C16.609 20.7816 16.601 20.8776 16.593 20.9656H11.445V19.7656H15.381L14.517 20.1016C14.525 19.8056 14.469 19.5496 14.349 19.3336C14.237 19.1176 14.077 18.9496 13.869 18.8296C13.669 18.7096 13.433 18.6496 13.161 18.6496C12.889 18.6496 12.649 18.7096 12.441 18.8296C12.241 18.9496 12.085 19.1216 11.973 19.3456C11.861 19.5616 11.805 19.8176 11.805 20.1136V20.4616C11.805 20.7816 11.869 21.0576 11.997 21.2896C12.133 21.5216 12.325 21.7016 12.573 21.8296C12.821 21.9496 13.117 22.0096 13.461 22.0096C13.781 22.0096 14.053 21.9656 14.277 21.8776C14.509 21.7816 14.737 21.6376 14.961 21.4456L16.161 22.6936C15.849 23.0376 15.465 23.3016 15.009 23.4856C14.553 23.6616 14.013 23.7496 13.389 23.7496ZM20.0442 23.7496C19.4922 23.7496 18.9522 23.6856 18.4242 23.5576C17.9042 23.4296 17.4842 23.2696 17.1642 23.0776L17.8482 21.5176C18.1522 21.7016 18.5082 21.8496 18.9162 21.9616C19.3242 22.0656 19.7242 22.1176 20.1162 22.1176C20.5002 22.1176 20.7642 22.0776 20.9082 21.9976C21.0602 21.9176 21.1362 21.8096 21.1362 21.6736C21.1362 21.5456 21.0642 21.4536 20.9202 21.3976C20.7842 21.3336 20.6002 21.2856 20.3682 21.2536C20.1442 21.2216 19.8962 21.1856 19.6242 21.1456C19.3522 21.1056 19.0762 21.0536 18.7962 20.9896C18.5242 20.9176 18.2722 20.8136 18.0402 20.6776C17.8162 20.5336 17.6362 20.3416 17.5002 20.1016C17.3642 19.8616 17.2962 19.5576 17.2962 19.1896C17.2962 18.7736 17.4162 18.4056 17.6562 18.0856C17.9042 17.7576 18.2642 17.5016 18.7362 17.3176C19.2082 17.1256 19.7842 17.0296 20.4642 17.0296C20.9202 17.0296 21.3802 17.0776 21.8442 17.1736C22.3162 17.2616 22.7122 17.3976 23.0322 17.5816L22.3482 19.1296C22.0282 18.9456 21.7082 18.8216 21.3882 18.7576C21.0682 18.6856 20.7642 18.6496 20.4762 18.6496C20.0922 18.6496 19.8202 18.6936 19.6602 18.7816C19.5082 18.8696 19.4322 18.9776 19.4322 19.1056C19.4322 19.2336 19.5002 19.3336 19.6362 19.4056C19.7722 19.4696 19.9522 19.5216 20.1762 19.5616C20.4082 19.5936 20.6602 19.6296 20.9322 19.6696C21.2042 19.7016 21.4762 19.7536 21.7482 19.8256C22.0282 19.8976 22.2802 20.0056 22.5042 20.1496C22.7362 20.2856 22.9202 20.4736 23.0562 20.7136C23.1922 20.9456 23.2602 21.2456 23.2602 21.6136C23.2602 22.0136 23.1362 22.3736 22.8882 22.6936C22.6482 23.0136 22.2882 23.2696 21.8082 23.4616C21.3362 23.6536 20.7482 23.7496 20.0442 23.7496ZM24.2427 23.6416V17.1376H26.5227V23.6416H24.2427ZM25.3827 16.4176C24.9667 16.4176 24.6307 16.3016 24.3747 16.0696C24.1187 15.8376 23.9907 15.5496 23.9907 15.2056C23.9907 14.8616 24.1187 14.5736 24.3747 14.3416C24.6307 14.1096 24.9667 13.9936 25.3827 13.9936C25.7987 13.9936 26.1347 14.1056 26.3907 14.3296C26.6467 14.5456 26.7747 14.8256 26.7747 15.1696C26.7747 15.5296 26.6467 15.8296 26.3907 16.0696C26.1427 16.3016 25.8067 16.4176 25.3827 16.4176ZM31.1845 26.0776C30.5605 26.0776 29.9645 26.0056 29.3965 25.8616C28.8365 25.7176 28.3565 25.5056 27.9565 25.2256L28.7845 23.6296C29.0565 23.8456 29.3925 24.0136 29.7925 24.1336C30.2005 24.2616 30.5965 24.3256 30.9805 24.3256C31.5965 24.3256 32.0405 24.1896 32.3125 23.9176C32.5845 23.6536 32.7205 23.2656 32.7205 22.7536V21.9856L32.8405 20.1616L32.8285 18.3256V17.1376H35.0005V22.4536C35.0005 23.6856 34.6685 24.5976 34.0045 25.1896C33.3405 25.7816 32.4005 26.0776 31.1845 26.0776ZM30.7885 23.3056C30.2125 23.3056 29.6805 23.1776 29.1925 22.9216C28.7125 22.6576 28.3245 22.2936 28.0285 21.8296C27.7405 21.3576 27.5965 20.8016 27.5965 20.1616C27.5965 19.5216 27.7405 18.9696 28.0285 18.5056C28.3245 18.0336 28.7125 17.6696 29.1925 17.4136C29.6805 17.1576 30.2125 17.0296 30.7885 17.0296C31.3405 17.0296 31.8125 17.1416 32.2045 17.3656C32.5965 17.5816 32.8925 17.9216 33.0925 18.3856C33.3005 18.8496 33.4045 19.4416 33.4045 20.1616C33.4045 20.8816 33.3005 21.4736 33.0925 21.9376C32.8925 22.4016 32.5965 22.7456 32.2045 22.9696C31.8125 23.1936 31.3405 23.3056 30.7885 23.3056ZM31.3285 21.4936C31.6005 21.4936 31.8405 21.4376 32.0485 21.3256C32.2645 21.2136 32.4325 21.0576 32.5525 20.8576C32.6805 20.6576 32.7445 20.4256 32.7445 20.1616C32.7445 19.8976 32.6805 19.6656 32.5525 19.4656C32.4325 19.2656 32.2645 19.1136 32.0485 19.0096C31.8405 18.8976 31.6005 18.8416 31.3285 18.8416C31.0565 18.8416 30.8125 18.8976 30.5965 19.0096C30.3805 19.1136 30.2085 19.2656 30.0805 19.4656C29.9605 19.6656 29.9005 19.8976 29.9005 20.1616C29.9005 20.4256 29.9605 20.6576 30.0805 20.8576C30.2085 21.0576 30.3805 21.2136 30.5965 21.3256C30.8125 21.4376 31.0565 21.4936 31.3285 21.4936ZM40.7014 17.0296C41.2054 17.0296 41.6614 17.1336 42.0694 17.3416C42.4774 17.5416 42.7974 17.8536 43.0294 18.2776C43.2694 18.7016 43.3894 19.2496 43.3894 19.9216V23.6416H41.1094V20.2936C41.1094 19.8296 41.0134 19.4936 40.8214 19.2856C40.6374 19.0696 40.3774 18.9616 40.0414 18.9616C39.8014 18.9616 39.5814 19.0176 39.3814 19.1296C39.1814 19.2336 39.0254 19.3976 38.9134 19.6216C38.8014 19.8456 38.7454 20.1376 38.7454 20.4976V23.6416H36.4654V17.1376H38.6374V18.9856L38.2174 18.4456C38.4654 17.9736 38.8054 17.6216 39.2374 17.3896C39.6694 17.1496 40.1574 17.0296 40.7014 17.0296Z" fill="#121212"/>
</svg>
