<svg width="100" height="100" viewBox="0 0 100 100" fill="none" xmlns="http://www.w3.org/2000/svg">
<g clip-path="url(#clip0_96_71)">
<rect width="100" height="100" fill="white"/>
<g filter="url(#filter0_i_96_71)">
<path d="M-2.02088 -7.20428H55.9249C55.9249 -7.20428 1.97227 -13.8991 73.4891 -7.20429C145.006 -0.509503 72.1668 20.8755 55.9249 22.0875C-382.538 100.626 -69.3622 46.2268 -2.02088 22.0875V-7.20428Z" fill="#006191"/>
</g>
<g filter="url(#filter1_i_96_71)">
<path d="M-10.6663 90.4525C-2.16105 74.1423 49.2709 73.7964 45.2953 83.9674C41.3196 94.1385 82.7 71.2523 101.257 77.4823L104.089 101.918C91.4213 126.135 62.0658 125.981 -7.83455 114.889L-10.6663 90.4525Z" fill="#950707"/>
</g>
<g filter="url(#filter2_d_96_71)">
<path d="M34.2652 51.08L34.5052 56.68C34.5052 57.0533 34.4518 57.4667 34.3452 57.92C34.2652 58.3733 33.8652 59.12 33.1452 60.16C32.4518 61.2 31.9185 61.72 31.5452 61.72L30.2652 61.32C30.1585 61.32 29.9985 61.44 29.7852 61.68C29.5985 61.92 29.3452 62.1867 29.0252 62.48C28.7318 62.7733 27.8518 63.1467 26.3852 63.6C24.9452 64.08 23.9718 64.32 23.4652 64.32C22.1852 64.32 20.9052 63.92 19.6252 63.12C18.3452 62.32 17.3852 61.5733 16.7452 60.88C16.7185 60.8533 16.5852 60.8 16.3452 60.72C16.1318 60.64 15.9852 60.5733 15.9052 60.52C15.8518 60.44 15.8252 60.2267 15.8252 59.88C15.8252 59.16 15.9452 58.1733 16.1852 56.92L16.3052 56.32C16.3052 56.32 16.1318 55.6133 15.7852 54.2C15.7852 53.9067 16.4385 53.2667 17.7452 52.28C19.0785 51.2933 20.0385 50.8 20.6252 50.8C21.2118 50.8 21.7985 50.8933 22.3852 51.08C23.1052 51.2667 23.4652 51.4133 23.4652 51.52C23.4652 51.6267 23.3585 52.0267 23.1452 52.72C22.9318 53.3867 22.8252 53.88 22.8252 54.2C22.8252 54.4933 22.9852 54.76 23.3052 55C23.6252 55.2133 23.7852 55.3467 23.7852 55.4C23.7852 55.7733 23.6385 56.2 23.3452 56.68C23.0518 57.16 22.9052 57.4133 22.9052 57.44C22.9052 57.7867 23.1452 58.1867 23.6252 58.64C24.1318 59.0933 24.5185 59.32 24.7852 59.32C25.1852 59.32 25.7452 59.0133 26.4652 58.4C26.8652 58 27.0652 57.1733 27.0652 55.92C27.0652 54.64 26.9985 53.9333 26.8652 53.8C26.7318 53.6667 26.6652 53.1733 26.6652 52.32V52C26.6652 51.9467 26.8652 51.7867 27.2652 51.52C27.6652 51.2267 27.8652 50.92 27.8652 50.6C27.8652 50.28 27.6785 50.0133 27.3052 49.8C26.9585 49.5867 26.7852 49.4667 26.7852 49.44L26.8252 48.6C26.8785 47.48 26.9052 45.8933 26.9052 43.84C26.9052 41.76 26.8118 40.4267 26.6252 39.84V39.8C26.6252 39.64 26.8518 39.3867 27.3052 39.04C27.7585 38.6667 27.9852 38.4667 27.9852 38.44C27.9852 38.2 27.8918 37.9733 27.7052 37.76C27.5185 37.5467 27.2385 37.44 26.8652 37.44C26.4918 37.44 26.1052 37.5733 25.7052 37.84C25.3052 38.1067 24.9985 38.3733 24.7852 38.64C24.5985 38.9067 24.4518 39.04 24.3452 39.04C24.2385 39.04 23.9585 38.8533 23.5052 38.48C23.0518 38.1067 22.8252 37.8133 22.8252 37.6C22.8252 37.3867 22.9585 36.7467 23.2252 35.68C23.5185 34.5867 23.7318 33.96 23.8652 33.8C24.1318 33.56 25.1318 33.1733 26.8652 32.64C28.6252 32.1067 30.0518 31.84 31.1452 31.84C31.3318 31.9733 31.4518 32.08 31.5052 32.16C31.5585 32.24 31.6118 32.28 31.6652 32.28L34.4252 32C34.7452 32 34.9585 32.0667 35.0652 32.2C35.1985 32.3067 35.2652 33.1733 35.2652 34.8C35.2652 35.2 35.0518 35.88 34.6252 36.84C34.1985 37.7733 33.9852 38.32 33.9852 38.48C33.9852 38.6133 34.1452 38.8267 34.4652 39.12C34.7852 39.3867 34.9452 39.6 34.9452 39.76C34.9452 39.92 34.7585 40.1867 34.3852 40.56C34.0118 40.9067 33.8252 41.2 33.8252 41.44C33.8252 41.6533 34.0252 42.0267 34.4252 42.56C34.8252 43.0667 35.0252 43.36 35.0252 43.44C35.0252 43.52 35.0118 43.56 34.9852 43.56C34.9852 43.56 34.9852 43.5733 34.9852 43.6C34.5052 44.4533 34.2652 46.0133 34.2652 48.28V51.08ZM63.3339 49.4L63.3739 50.52C63.3739 50.68 63.2006 50.92 62.8539 51.24C62.5339 51.56 62.3739 51.7733 62.3739 51.88C62.3739 52.2533 62.4006 52.48 62.4539 52.56C62.5339 52.6133 62.6406 52.6667 62.7739 52.72C63.0939 52.8533 63.2539 52.9333 63.2539 52.96C63.2539 53.9467 63.2006 55.2533 63.0939 56.88C63.0139 58.48 62.9739 59.4 62.9739 59.64C62.9739 59.8533 63.1739 60.4 63.5739 61.28L64.1339 62.6C64.1339 62.68 63.9739 62.8 63.6539 62.96C63.3606 63.12 63.0939 63.32 62.8539 63.56C62.6139 63.8 62.1872 64.0133 61.5739 64.2C60.9872 64.3867 60.4806 64.4933 60.0539 64.52L59.3739 64.6C58.8939 64.6 58.1472 64.32 57.1339 63.76C56.1472 63.2267 55.6539 62.88 55.6539 62.72L56.0139 59.96L56.5739 59.64C56.9472 59.4267 57.1339 59.24 57.1339 59.08C57.1339 58.8933 57.0672 58.7467 56.9339 58.64C56.8272 58.5333 56.7072 58.44 56.5739 58.36C56.2272 58.1467 56.0539 58.0133 56.0539 57.96C56.2139 56.84 56.2939 55.6533 56.2939 54.4C56.2939 53.1467 56.2672 52.4933 56.2139 52.44C56.0539 52.28 55.9739 52.0933 55.9739 51.88C55.9739 51.4533 56.2406 50.8933 56.7739 50.2L57.0139 49.88C57.0139 49.56 56.7072 49.2933 56.0939 49.08C55.5072 49.08 54.9206 49.5867 54.3339 50.6C53.7472 51.5867 53.4539 52.24 53.4539 52.56L53.6939 53.2C53.6939 53.7067 53.4939 54.2533 53.0939 54.84C53.0672 54.8933 53.0539 55.0267 53.0539 55.24C53.0539 55.4533 53.1872 55.72 53.4539 56.04C53.3472 56.68 53.2939 57.4133 53.2939 58.24C53.2939 59.0667 53.3872 60.32 53.5739 62V62.04C53.5739 62.12 53.4406 62.2 53.1739 62.28C52.2672 62.5733 51.7339 62.8 51.5739 62.96C51.2539 63.28 50.6939 63.5067 49.8939 63.64L49.4939 63.68C48.8272 63.68 48.1339 63.5467 47.4139 63.28C46.7206 63.04 46.3739 62.8267 46.3739 62.64V62.6C46.5606 61.8 46.6539 60.1333 46.6539 57.6V57.16C46.6539 56.7867 46.5339 56.48 46.2939 56.24C46.2939 55.9733 46.4672 55.7067 46.8139 55.44C47.1872 55.1733 47.3739 54.9467 47.3739 54.76C47.3739 54.5467 47.2006 54.28 46.8539 53.96C46.5072 53.64 46.3339 53.4533 46.3339 53.4C46.3339 52.76 46.5072 52 46.8539 51.12C47.2272 50.24 47.4139 49.76 47.4139 49.68C47.4139 49.5733 47.3472 49.4667 47.2139 49.36C47.1072 49.2267 46.9339 49.16 46.6939 49.16C46.2672 49.16 45.7606 49.3467 45.1739 49.72C44.9606 49.96 44.5872 50.68 44.0539 51.88C43.5206 53.08 43.2539 53.88 43.2539 54.28C43.2539 54.8933 43.4272 55.4 43.7739 55.8C43.8006 55.8267 43.8139 55.88 43.8139 55.96L43.4939 56.8C43.4139 56.88 43.3739 57.2267 43.3739 57.84L43.6939 62.76C43.6939 62.92 43.1072 63.3067 41.9339 63.92C40.7606 64.56 40.0539 64.88 39.8139 64.88C38.9072 64.8267 37.8672 64.5867 36.6939 64.16L36.1739 63.96L36.5339 61.4L37.0139 61.24C37.3072 61.16 37.4539 60.9867 37.4539 60.72C37.4539 60.4533 37.2672 60.16 36.8939 59.84C36.5472 59.52 36.3739 59.3333 36.3739 59.28L36.4939 58.8C36.7339 57.84 36.8539 56.8 36.8539 55.68L36.6139 48.32C36.6139 48 36.6272 47.8267 36.6539 47.8C36.8139 47.6933 36.9206 47.6133 36.9739 47.56C37.1072 47.48 37.1739 47.2267 37.1739 46.8C37.1739 46.3467 37.0806 45.84 36.8939 45.28C36.7072 44.6933 36.4806 44.28 36.2139 44.04C35.9739 43.7733 35.8539 43.2267 35.8539 42.4C35.8539 42.24 36.2672 41.96 37.0939 41.56C37.9472 41.1333 38.5072 40.92 38.7739 40.92C40.8806 41.2133 42.1872 41.6133 42.6939 42.12C42.9872 43.1067 43.1339 43.6933 43.1339 43.88C43.1339 44.04 43.0272 44.4133 42.8139 45C42.6006 45.56 42.4939 45.92 42.4939 46.08C42.4939 46.24 42.6006 46.44 42.8139 46.68C43.0272 46.8933 43.2539 47 43.4939 47C44.0539 45.6933 44.4272 44.9467 44.6139 44.76C44.8006 44.5733 45.5339 44.16 46.8139 43.52C48.0939 42.8533 48.8939 42.52 49.2139 42.52C49.5339 42.52 50.0406 42.72 50.7339 43.12C51.4272 43.52 51.9206 43.8667 52.2139 44.16C52.7472 45.0133 53.0139 45.56 53.0139 45.8C53.1472 45.88 53.2539 45.92 53.3339 45.92C53.4406 45.92 53.5206 45.8933 53.5739 45.84C53.6539 45.76 53.8672 45.3333 54.2139 44.56C54.5606 43.7867 54.7472 43.3867 54.7739 43.36C55.0672 43.0667 55.8139 42.6667 57.0139 42.16C58.2139 41.6533 59.0539 41.4 59.5339 41.4C60.7339 41.8 61.4272 42.0933 61.6139 42.28C63.0006 44.3333 63.6939 45.5067 63.6939 45.8V45.84C63.4539 46.0533 63.3339 46.9467 63.3339 48.52V49.4ZM82.6261 51.08L82.8661 56.68C82.8661 57.0533 82.8128 57.4667 82.7061 57.92C82.6261 58.3733 82.2261 59.12 81.5061 60.16C80.8128 61.2 80.2794 61.72 79.9061 61.72L78.6261 61.32C78.5194 61.32 78.3594 61.44 78.1461 61.68C77.9594 61.92 77.7061 62.1867 77.3861 62.48C77.0928 62.7733 76.2128 63.1467 74.7461 63.6C73.3061 64.08 72.3328 64.32 71.8261 64.32C70.5461 64.32 69.2661 63.92 67.9861 63.12C66.7061 62.32 65.7461 61.5733 65.1061 60.88C65.0794 60.8533 64.9461 60.8 64.7061 60.72C64.4928 60.64 64.3461 60.5733 64.2661 60.52C64.2128 60.44 64.1861 60.2267 64.1861 59.88C64.1861 59.16 64.3061 58.1733 64.5461 56.92L64.6661 56.32C64.6661 56.32 64.4928 55.6133 64.1461 54.2C64.1461 53.9067 64.7994 53.2667 66.1061 52.28C67.4394 51.2933 68.3994 50.8 68.9861 50.8C69.5728 50.8 70.1594 50.8933 70.7461 51.08C71.4661 51.2667 71.8261 51.4133 71.8261 51.52C71.8261 51.6267 71.7194 52.0267 71.5061 52.72C71.2928 53.3867 71.1861 53.88 71.1861 54.2C71.1861 54.4933 71.3461 54.76 71.6661 55C71.9861 55.2133 72.1461 55.3467 72.1461 55.4C72.1461 55.7733 71.9994 56.2 71.7061 56.68C71.4128 57.16 71.2661 57.4133 71.2661 57.44C71.2661 57.7867 71.5061 58.1867 71.9861 58.64C72.4928 59.0933 72.8794 59.32 73.1461 59.32C73.5461 59.32 74.1061 59.0133 74.8261 58.4C75.2261 58 75.4261 57.1733 75.4261 55.92C75.4261 54.64 75.3594 53.9333 75.2261 53.8C75.0928 53.6667 75.0261 53.1733 75.0261 52.32V52C75.0261 51.9467 75.2261 51.7867 75.6261 51.52C76.0261 51.2267 76.2261 50.92 76.2261 50.6C76.2261 50.28 76.0394 50.0133 75.6661 49.8C75.3194 49.5867 75.1461 49.4667 75.1461 49.44L75.1861 48.6C75.2394 47.48 75.2661 45.8933 75.2661 43.84C75.2661 41.76 75.1728 40.4267 74.9861 39.84V39.8C74.9861 39.64 75.2128 39.3867 75.6661 39.04C76.1194 38.6667 76.3461 38.4667 76.3461 38.44C76.3461 38.2 76.2528 37.9733 76.0661 37.76C75.8794 37.5467 75.5994 37.44 75.2261 37.44C74.8528 37.44 74.4661 37.5733 74.0661 37.84C73.6661 38.1067 73.3594 38.3733 73.1461 38.64C72.9594 38.9067 72.8128 39.04 72.7061 39.04C72.5994 39.04 72.3194 38.8533 71.8661 38.48C71.4128 38.1067 71.1861 37.8133 71.1861 37.6C71.1861 37.3867 71.3194 36.7467 71.5861 35.68C71.8794 34.5867 72.0928 33.96 72.2261 33.8C72.4928 33.56 73.4928 33.1733 75.2261 32.64C76.9861 32.1067 78.4128 31.84 79.5061 31.84C79.6928 31.9733 79.8128 32.08 79.8661 32.16C79.9194 32.24 79.9728 32.28 80.0261 32.28L82.7861 32C83.1061 32 83.3194 32.0667 83.4261 32.2C83.5594 32.3067 83.6261 33.1733 83.6261 34.8C83.6261 35.2 83.4128 35.88 82.9861 36.84C82.5594 37.7733 82.3461 38.32 82.3461 38.48C82.3461 38.6133 82.5061 38.8267 82.8261 39.12C83.1461 39.3867 83.3061 39.6 83.3061 39.76C83.3061 39.92 83.1194 40.1867 82.7461 40.56C82.3728 40.9067 82.1861 41.2 82.1861 41.44C82.1861 41.6533 82.3861 42.0267 82.7861 42.56C83.1861 43.0667 83.3861 43.36 83.3861 43.44C83.3861 43.52 83.3728 43.56 83.3461 43.56C83.3461 43.56 83.3461 43.5733 83.3461 43.6C82.8661 44.4533 82.6261 46.0133 82.6261 48.28V51.08Z" fill="black"/>
</g>
</g>
<defs>
<filter id="filter0_i_96_71" x="-173.305" y="-10.1797" width="277.689" height="77.1797" filterUnits="userSpaceOnUse" color-interpolation-filters="sRGB">
<feFlood flood-opacity="0" result="BackgroundImageFix"/>
<feBlend mode="normal" in="SourceGraphic" in2="BackgroundImageFix" result="shape"/>
<feColorMatrix in="SourceAlpha" type="matrix" values="0 0 0 0 0 0 0 0 0 0 0 0 0 0 0 0 0 0 127 0" result="hardAlpha"/>
<feOffset dy="4"/>
<feGaussianBlur stdDeviation="2"/>
<feComposite in2="hardAlpha" operator="arithmetic" k2="-1" k3="1"/>
<feColorMatrix type="matrix" values="0 0 0 0 0 0 0 0 0 0 0 0 0 0 0 0 0 0 0.25 0"/>
<feBlend mode="normal" in2="shape" result="effect1_innerShadow_96_71"/>
</filter>
<filter id="filter1_i_96_71" x="-10.666" y="76.3892" width="114.755" height="49.7022" filterUnits="userSpaceOnUse" color-interpolation-filters="sRGB">
<feFlood flood-opacity="0" result="BackgroundImageFix"/>
<feBlend mode="normal" in="SourceGraphic" in2="BackgroundImageFix" result="shape"/>
<feColorMatrix in="SourceAlpha" type="matrix" values="0 0 0 0 0 0 0 0 0 0 0 0 0 0 0 0 0 0 127 0" result="hardAlpha"/>
<feOffset dy="4"/>
<feGaussianBlur stdDeviation="2"/>
<feComposite in2="hardAlpha" operator="arithmetic" k2="-1" k3="1"/>
<feColorMatrix type="matrix" values="0 0 0 0 0 0 0 0 0 0 0 0 0 0 0 0 0 0 0.25 0"/>
<feBlend mode="normal" in2="shape" result="effect1_innerShadow_96_71"/>
</filter>
<filter id="filter2_d_96_71" x="11.7852" y="31.84" width="75.8408" height="41.04" filterUnits="userSpaceOnUse" color-interpolation-filters="sRGB">
<feFlood flood-opacity="0" result="BackgroundImageFix"/>
<feColorMatrix in="SourceAlpha" type="matrix" values="0 0 0 0 0 0 0 0 0 0 0 0 0 0 0 0 0 0 127 0" result="hardAlpha"/>
<feOffset dy="4"/>
<feGaussianBlur stdDeviation="2"/>
<feComposite in2="hardAlpha" operator="out"/>
<feColorMatrix type="matrix" values="0 0 0 0 0 0 0 0 0 0 0 0 0 0 0 0 0 0 0.25 0"/>
<feBlend mode="normal" in2="BackgroundImageFix" result="effect1_dropShadow_96_71"/>
<feBlend mode="normal" in="SourceGraphic" in2="effect1_dropShadow_96_71" result="shape"/>
</filter>
<clipPath id="clip0_96_71">
<rect width="100" height="100" fill="white"/>
</clipPath>
</defs>
</svg>
