<svg width="50" height="40" viewBox="0 0 50 40" fill="none" xmlns="http://www.w3.org/2000/svg">
<g clip-path="url(#clip0_96_93)">
<rect width="50" height="39" transform="translate(0 0.5)" fill="#F8F8F8"/>
<g filter="url(#filter0_di_96_93)">
<path d="M53.4429 55.4365C34.5983 54.9211 59.2769 79.2315 24.7295 84.1499C-9.81789 89.0682 40.7748 55.4365 0.691942 59.0692C-39.3909 62.7018 14.0008 31.4172 31.1623 35.2771C48.3237 39.137 72.2876 55.9519 53.4429 55.4365Z" fill="#006191"/>
<path d="M53.4566 54.9367C51.0567 54.871 49.2853 55.1975 47.9841 55.8774C46.6648 56.5668 45.873 57.5963 45.3978 58.8347C44.9301 60.0536 44.7683 61.4766 44.6864 62.9709C44.6521 63.5971 44.6319 64.2255 44.6113 64.8631C44.5816 65.7881 44.5511 66.7325 44.4762 67.7176C44.2276 70.9851 43.501 74.3301 40.7796 77.1701C38.0495 80.0191 33.2406 82.4331 24.659 83.6549C20.3583 84.2671 17.4418 84.2692 15.5296 83.8471C13.6385 83.4295 12.8139 82.6223 12.5134 81.6478C12.1928 80.608 12.4156 79.2321 12.9835 77.5803C13.4483 76.2281 14.1143 74.7701 14.8038 73.2605C14.9494 72.9417 15.0961 72.6206 15.2421 72.2977C16.0711 70.4648 16.8773 68.5794 17.2898 66.8194C17.7013 65.063 17.7419 63.3455 16.936 61.9032C16.1236 60.4494 14.5211 59.3969 11.9249 58.8176C9.33136 58.2389 5.67856 58.1152 0.646812 58.5712C-4.34748 59.0238 -7.83779 58.927 -10.1064 58.4425C-12.4102 57.9506 -13.2457 57.1142 -13.3762 56.2654C-13.4459 55.812 -13.3386 55.2609 -13.0116 54.6068C-12.6855 53.9543 -12.1573 53.2332 -11.44 52.4599C-10.0055 50.9134 -7.86891 49.2159 -5.26504 47.5058C-0.0611649 44.0882 6.93101 40.6708 13.6871 38.3499C17.0641 37.1898 20.372 36.3073 23.36 35.834C26.3547 35.3597 28.995 35.3021 31.0525 35.7649C39.5575 37.6778 49.7699 42.8126 55.4926 47.3881C56.9209 48.53 58.0507 49.6225 58.8022 50.6058C59.5676 51.6072 59.8779 52.4136 59.8268 53.0038C59.7818 53.5245 59.4345 54.0296 58.4243 54.4084C57.3997 54.7926 55.7895 55.0005 53.4566 54.9367Z" stroke="#950707"/>
</g>
<g filter="url(#filter1_di_96_93)">
<path d="M47.2563 15.8984C22.5124 -13.4656 6.95181 5.32947 -18.0449 19.1623C-43.0416 32.9951 -19.9348 -46.2574 -2.16922 -34.8565C15.5964 -23.4556 26.7232 -23.3614 57.5365 -30.604C88.3498 -37.8466 72.0003 45.2625 47.2563 15.8984Z" fill="#006191"/>
<path d="M47.2563 15.8984C22.5124 -13.4656 6.95181 5.32947 -18.0449 19.1623C-43.0416 32.9951 -19.9348 -46.2574 -2.16922 -34.8565C15.5964 -23.4556 26.7232 -23.3614 57.5365 -30.604C88.3498 -37.8466 72.0003 45.2625 47.2563 15.8984Z" stroke="#950707"/>
</g>
<g filter="url(#filter2_d_96_93)">
<g filter="url(#filter3_di_96_93)">
<path d="M16.8828 10.1539H21.9309V31.8615L16.8828 36V10.1539Z" fill="#950707" stroke="#F8F8F8" stroke-width="0.5"/>
<path d="M21.6816 8.6731V4.25002L11.3412 4.25002L8.50662 8.6731H21.6816Z" fill="#950707" stroke="#F8F8F8" stroke-width="0.5"/>
<path d="M15.3711 31.3269V35.75H6.9101L3.50858 31.3269H15.3711Z" fill="#950707" stroke="#F8F8F8" stroke-width="0.5"/>
<rect x="3.25098" y="26.4039" width="4.54806" height="3.19231" fill="#950707" stroke="#F8F8F8" stroke-width="0.5"/>
</g>
<g filter="url(#filter4_di_96_93)">
<path d="M41.9512 10.1539H46.9992V31.8615L41.9512 36V10.1539Z" fill="#950707" stroke="#F8F8F8" stroke-width="0.5"/>
<path d="M46.75 8.6731V4.25002L36.4096 4.25002L33.575 8.6731H46.75Z" fill="#950707" stroke="#F8F8F8" stroke-width="0.5"/>
<path d="M40.4395 31.3269V35.75H31.9785L28.5769 31.3269H40.4395Z" fill="#950707" stroke="#F8F8F8" stroke-width="0.5"/>
<rect x="28.3193" y="26.4039" width="4.54806" height="3.19231" fill="#950707" stroke="#F8F8F8" stroke-width="0.5"/>
</g>
</g>
</g>
<defs>
<filter id="filter0_di_96_93" x="-16.5413" y="34.9465" width="79.5181" height="54.9854" filterUnits="userSpaceOnUse" color-interpolation-filters="sRGB">
<feFlood flood-opacity="0" result="BackgroundImageFix"/>
<feColorMatrix in="SourceAlpha" type="matrix" values="0 0 0 0 0 0 0 0 0 0 0 0 0 0 0 0 0 0 127 0" result="hardAlpha"/>
<feOffset dy="2.64478"/>
<feGaussianBlur stdDeviation="1.32239"/>
<feComposite in2="hardAlpha" operator="out"/>
<feColorMatrix type="matrix" values="0 0 0 0 0 0 0 0 0 0 0 0 0 0 0 0 0 0 0.25 0"/>
<feBlend mode="normal" in2="BackgroundImageFix" result="effect1_dropShadow_96_93"/>
<feBlend mode="normal" in="SourceGraphic" in2="effect1_dropShadow_96_93" result="shape"/>
<feColorMatrix in="SourceAlpha" type="matrix" values="0 0 0 0 0 0 0 0 0 0 0 0 0 0 0 0 0 0 127 0" result="hardAlpha"/>
<feOffset dy="4"/>
<feGaussianBlur stdDeviation="2"/>
<feComposite in2="hardAlpha" operator="arithmetic" k2="-1" k3="1"/>
<feColorMatrix type="matrix" values="0 0 0 0 0 0 0 0 0 0 0 0 0 0 0 0 0 0 0.25 0"/>
<feBlend mode="normal" in2="shape" result="effect2_innerShadow_96_93"/>
</filter>
<filter id="filter1_di_96_93" x="-30.324" y="-36.4825" width="105.998" height="63.1878" filterUnits="userSpaceOnUse" color-interpolation-filters="sRGB">
<feFlood flood-opacity="0" result="BackgroundImageFix"/>
<feColorMatrix in="SourceAlpha" type="matrix" values="0 0 0 0 0 0 0 0 0 0 0 0 0 0 0 0 0 0 127 0" result="hardAlpha"/>
<feOffset dy="0.806452"/>
<feGaussianBlur stdDeviation="0.403226"/>
<feComposite in2="hardAlpha" operator="out"/>
<feColorMatrix type="matrix" values="0 0 0 0 0 0 0 0 0 0 0 0 0 0 0 0 0 0 0.25 0"/>
<feBlend mode="normal" in2="BackgroundImageFix" result="effect1_dropShadow_96_93"/>
<feBlend mode="normal" in="SourceGraphic" in2="effect1_dropShadow_96_93" result="shape"/>
<feColorMatrix in="SourceAlpha" type="matrix" values="0 0 0 0 0 0 0 0 0 0 0 0 0 0 0 0 0 0 127 0" result="hardAlpha"/>
<feOffset dy="4"/>
<feGaussianBlur stdDeviation="2"/>
<feComposite in2="hardAlpha" operator="arithmetic" k2="-1" k3="1"/>
<feColorMatrix type="matrix" values="0 0 0 0 0 0 0 0 0 0 0 0 0 0 0 0 0 0 0.25 0"/>
<feBlend mode="normal" in2="shape" result="effect2_innerShadow_96_93"/>
</filter>
<filter id="filter2_d_96_93" x="-0.999023" y="4" width="52.248" height="40.5283" filterUnits="userSpaceOnUse" color-interpolation-filters="sRGB">
<feFlood flood-opacity="0" result="BackgroundImageFix"/>
<feColorMatrix in="SourceAlpha" type="matrix" values="0 0 0 0 0 0 0 0 0 0 0 0 0 0 0 0 0 0 127 0" result="hardAlpha"/>
<feOffset dy="4"/>
<feGaussianBlur stdDeviation="2"/>
<feComposite in2="hardAlpha" operator="out"/>
<feColorMatrix type="matrix" values="0 0 0 0 0 0 0 0 0 0 0 0 0 0 0 0 0 0 0.25 0"/>
<feBlend mode="normal" in2="BackgroundImageFix" result="effect1_dropShadow_96_93"/>
<feBlend mode="normal" in="SourceGraphic" in2="effect1_dropShadow_96_93" result="shape"/>
</filter>
<filter id="filter3_di_96_93" x="0.500977" y="4" width="24.1797" height="37.5283" filterUnits="userSpaceOnUse" color-interpolation-filters="sRGB">
<feFlood flood-opacity="0" result="BackgroundImageFix"/>
<feColorMatrix in="SourceAlpha" type="matrix" values="0 0 0 0 0 0 0 0 0 0 0 0 0 0 0 0 0 0 127 0" result="hardAlpha"/>
<feOffset dy="2.5"/>
<feGaussianBlur stdDeviation="1.25"/>
<feComposite in2="hardAlpha" operator="out"/>
<feColorMatrix type="matrix" values="0 0 0 0 0 0 0 0 0 0 0 0 0 0 0 0 0 0 0.25 0"/>
<feBlend mode="normal" in2="BackgroundImageFix" result="effect1_dropShadow_96_93"/>
<feBlend mode="normal" in="SourceGraphic" in2="effect1_dropShadow_96_93" result="shape"/>
<feColorMatrix in="SourceAlpha" type="matrix" values="0 0 0 0 0 0 0 0 0 0 0 0 0 0 0 0 0 0 127 0" result="hardAlpha"/>
<feOffset dy="2.5"/>
<feGaussianBlur stdDeviation="1.25"/>
<feComposite in2="hardAlpha" operator="arithmetic" k2="-1" k3="1"/>
<feColorMatrix type="matrix" values="0 0 0 0 0 0 0 0 0 0 0 0 0 0 0 0 0 0 0.25 0"/>
<feBlend mode="normal" in2="shape" result="effect2_innerShadow_96_93"/>
</filter>
<filter id="filter4_di_96_93" x="25.5693" y="4" width="24.1797" height="37.5283" filterUnits="userSpaceOnUse" color-interpolation-filters="sRGB">
<feFlood flood-opacity="0" result="BackgroundImageFix"/>
<feColorMatrix in="SourceAlpha" type="matrix" values="0 0 0 0 0 0 0 0 0 0 0 0 0 0 0 0 0 0 127 0" result="hardAlpha"/>
<feOffset dy="2.5"/>
<feGaussianBlur stdDeviation="1.25"/>
<feComposite in2="hardAlpha" operator="out"/>
<feColorMatrix type="matrix" values="0 0 0 0 0 0 0 0 0 0 0 0 0 0 0 0 0 0 0.25 0"/>
<feBlend mode="normal" in2="BackgroundImageFix" result="effect1_dropShadow_96_93"/>
<feBlend mode="normal" in="SourceGraphic" in2="effect1_dropShadow_96_93" result="shape"/>
<feColorMatrix in="SourceAlpha" type="matrix" values="0 0 0 0 0 0 0 0 0 0 0 0 0 0 0 0 0 0 127 0" result="hardAlpha"/>
<feOffset dy="2.5"/>
<feGaussianBlur stdDeviation="1.25"/>
<feComposite in2="hardAlpha" operator="arithmetic" k2="-1" k3="1"/>
<feColorMatrix type="matrix" values="0 0 0 0 0 0 0 0 0 0 0 0 0 0 0 0 0 0 0.25 0"/>
<feBlend mode="normal" in2="shape" result="effect2_innerShadow_96_93"/>
</filter>
<clipPath id="clip0_96_93">
<rect width="50" height="39" fill="white" transform="translate(0 0.5)"/>
</clipPath>
</defs>
</svg>
